ply
format ascii 1.0
element vertex 70
property float x
property float y
property float z
element face 24
property list uchar int vertex_indices
end_header
1.861209718204e-01 2.149139863647e-01 0.000000000000e+00
2.171411337905e-01 2.686424829559e-01 0.000000000000e+00
6.514234013715e-01 3.760994761382e-01 0.000000000000e+00
6.824435633415e-01 4.298279727294e-01 0.000000000000e+00
4.963225915211e-01 2.149139863647e-01 0.000000000000e+00
4.653024295510e-01 2.686424829559e-01 0.000000000000e+00
1.240806478803e-01 3.223709795471e-01 0.000000000000e+00
1.861209718204e-01 3.223709795471e-01 0.000000000000e+00
5.583629154613e-01 2.149139863647e-01 0.000000000000e+00
5.893830774313e-01 2.686424829559e-01 0.000000000000e+00
5.893830774313e-01 5.372849659118e-02 0.000000000000e+00
5.583629154613e-01 1.074569931824e-01 0.000000000000e+00
3.102016197007e-01 5.372849659118e-01 0.000000000000e+00
2.791814577306e-01 5.910134625029e-01 0.000000000000e+00
4.653024295510e-01 6.984704556853e-01 0.000000000000e+00
4.963225915211e-01 7.521989522765e-01 0.000000000000e+00
3.722419436408e-01 5.372849659118e-01 0.000000000000e+00
4.032621056109e-01 5.910134625029e-01 0.000000000000e+00
8.375443731919e-01 6.984704556853e-01 0.000000000000e+00
6.824435633415e-01 5.372849659118e-01 0.000000000000e+00
6.514234013715e-01 5.910134625029e-01 0.000000000000e+00
9.306048591021e-02 6.984704556853e-01 0.000000000000e+00
1.240806478803e-01 7.521989522765e-01 0.000000000000e+00
7.444838872817e-01 5.372849659118e-01 0.000000000000e+00
7.755040492517e-01 5.910134625029e-01 0.000000000000e+00
3.102016197007e-01 3.223709795471e-01 0.000000000000e+00
3.722419436408e-01 3.223709795471e-01 0.000000000000e+00
3.102016197007e-02 3.760994761382e-01 0.000000000000e+00
0.000000000000e+00 4.298279727294e-01 0.000000000000e+00
7.755040492517e-01 3.760994761382e-01 0.000000000000e+00
7.444838872817e-01 4.298279727294e-01 0.000000000000e+00
4.032621056109e-01 3.760994761382e-01 0.000000000000e+00
3.722419436408e-01 4.298279727294e-01 0.000000000000e+00
3.102016197007e-01 0.000000000000e+00 0.000000000000e+00
3.722419436408e-01 0.000000000000e+00 0.000000000000e+00
4.963225915211e-01 6.447419590941e-01 0.000000000000e+00
5.583629154613e-01 6.447419590941e-01 0.000000000000e+00
6.824435633415e-01 0.000000000000e+00 0.000000000000e+00
7.444838872817e-01 0.000000000000e+00 0.000000000000e+00
1.240806478803e-01 6.447419590941e-01 0.000000000000e+00
1.861209718204e-01 6.447419590941e-01 0.000000000000e+00
8.685645351620e-01 2.149139863647e-01 0.000000000000e+00
8.375443731919e-01 2.686424829559e-01 0.000000000000e+00
5.893830774313e-01 6.984704556853e-01 0.000000000000e+00
5.583629154613e-01 7.521989522765e-01 0.000000000000e+00
4.653024295510e-01 5.372849659118e-02 0.000000000000e+00
4.963225915211e-01 1.074569931824e-01 0.000000000000e+00
8.685645351620e-01 3.223709795471e-01 0.000000000000e+00
4.963225915211e-01 3.223709795471e-01 0.000000000000e+00
5.583629154613e-01 3.223709795471e-01 0.000000000000e+00
2.171411337905e-01 5.372849659118e-02 0.000000000000e+00
1.861209718204e-01 1.074569931824e-01 0.000000000000e+00
0.000000000000e+00 5.372849659118e-01 0.000000000000e+00
3.102016197007e-02 5.910134625029e-01 0.000000000000e+00
3.102016197007e-01 6.447419590941e-01 0.000000000000e+00
3.722419436408e-01 6.447419590941e-01 0.000000000000e+00
6.824435633415e-01 6.447419590941e-01 0.000000000000e+00
7.444838872817e-01 6.447419590941e-01 0.000000000000e+00
6.824435633415e-01 3.223709795471e-01 0.000000000000e+00
7.444838872817e-01 3.223709795471e-01 0.000000000000e+00
2.171411337905e-01 6.984704556853e-01 0.000000000000e+00
1.861209718204e-01 7.521989522765e-01 0.000000000000e+00
8.375443731919e-01 5.372849659118e-02 0.000000000000e+00
8.685645351620e-01 1.074569931824e-01 0.000000000000e+00
1.240806478803e-01 1.074569931824e-01 0.000000000000e+00
8.685645351620e-01 6.447419590941e-01 0.000000000000e+00
1.240806478803e-01 2.149139863647e-01 0.000000000000e+00
9.306048591021e-02 2.686424829559e-01 0.000000000000e+00
2.791814577306e-01 3.760994761382e-01 0.000000000000e+00
3.102016197007e-01 4.298279727294e-01 0.000000000000e+00
12 0 51 50 33 34 45 46 4 5 26 25 1
6 0 1 7 6 67 66
4 0 66 64 51
4 1 25 68 7
4 2 49 9 58
6 2 58 59 29 30 3
12 2 3 19 20 36 35 17 16 32 31 48 49
4 3 30 23 19
4 4 46 11 8
6 4 8 9 49 48 5
4 5 48 31 26
12 6 7 68 69 12 13 40 39 53 52 28 27
12 8 11 10 37 38 62 63 41 42 59 58 9
4 12 69 32 16
6 12 16 17 55 54 13
4 13 54 60 40
4 14 55 17 35
6 14 35 36 43 44 15
4 18 57 24 65
6 19 23 24 57 56 20
4 20 56 43 36
6 21 39 40 60 61 22
6 25 26 31 32 69 68
4 29 59 42 47
