ply
format ascii 1.0
element vertex 144
property float x
property float y
property float z
element face 61
property list uchar int vertex_indices
end_header
0.000000000000e+00 5.857864376269e-02 0.000000000000e+00
5.857864376269e-02 0.000000000000e+00 0.000000000000e+00
2.000000000000e-01 5.857864376269e-02 0.000000000000e+00
2.585786437627e-01 0.000000000000e+00 0.000000000000e+00
1.171572875254e-01 5.857864376269e-02 0.000000000000e+00
4.000000000000e-01 5.857864376269e-02 0.000000000000e+00
4.585786437627e-01 0.000000000000e+00 0.000000000000e+00
3.171572875254e-01 5.857864376269e-02 0.000000000000e+00
6.000000000000e-01 5.857864376269e-02 0.000000000000e+00
6.585786437627e-01 0.000000000000e+00 0.000000000000e+00
5.171572875254e-01 5.857864376269e-02 0.000000000000e+00
8.000000000000e-01 5.857864376269e-02 0.000000000000e+00
8.585786437627e-01 0.000000000000e+00 0.000000000000e+00
7.171572875254e-01 5.857864376269e-02 0.000000000000e+00
1.000000000000e+00 5.857864376269e-02 0.000000000000e+00
1.058578643763e+00 0.000000000000e+00 0.000000000000e+00
9.171572875254e-01 5.857864376269e-02 0.000000000000e+00
1.117157287525e+00 5.857864376269e-02 0.000000000000e+00
0.000000000000e+00 2.585786437627e-01 0.000000000000e+00
5.857864376269e-02 2.000000000000e-01 0.000000000000e+00
5.857864376269e-02 1.171572875254e-01 0.000000000000e+00
2.000000000000e-01 2.585786437627e-01 0.000000000000e+00
2.585786437627e-01 2.000000000000e-01 0.000000000000e+00
2.585786437627e-01 1.171572875254e-01 0.000000000000e+00
1.171572875254e-01 2.585786437627e-01 0.000000000000e+00
4.000000000000e-01 2.585786437627e-01 0.000000000000e+00
4.585786437627e-01 2.000000000000e-01 0.000000000000e+00
4.585786437627e-01 1.171572875254e-01 0.000000000000e+00
3.171572875254e-01 2.585786437627e-01 0.000000000000e+00
6.000000000000e-01 2.585786437627e-01 0.000000000000e+00
6.585786437627e-01 2.000000000000e-01 0.000000000000e+00
6.585786437627e-01 1.171572875254e-01 0.000000000000e+00
5.171572875254e-01 2.585786437627e-01 0.000000000000e+00
8.000000000000e-01 2.585786437627e-01 0.000000000000e+00
8.585786437627e-01 2.000000000000e-01 0.000000000000e+00
8.585786437627e-01 1.171572875254e-01 0.000000000000e+00
7.171572875254e-01 2.585786437627e-01 0.000000000000e+00
1.000000000000e+00 2.585786437627e-01 0.000000000000e+00
1.058578643763e+00 2.000000000000e-01 0.000000000000e+00
1.058578643763e+00 1.171572875254e-01 0.000000000000e+00
9.171572875254e-01 2.585786437627e-01 0.000000000000e+00
1.117157287525e+00 2.585786437627e-01 0.000000000000e+00
0.000000000000e+00 4.585786437627e-01 0.000000000000e+00
5.857864376269e-02 4.000000000000e-01 0.000000000000e+00
5.857864376269e-02 3.171572875254e-01 0.000000000000e+00
2.000000000000e-01 4.585786437627e-01 0.000000000000e+00
2.585786437627e-01 4.000000000000e-01 0.000000000000e+00
2.585786437627e-01 3.171572875254e-01 0.000000000000e+00
1.171572875254e-01 4.585786437627e-01 0.000000000000e+00
4.000000000000e-01 4.585786437627e-01 0.000000000000e+00
4.585786437627e-01 4.000000000000e-01 0.000000000000e+00
4.585786437627e-01 3.171572875254e-01 0.000000000000e+00
3.171572875254e-01 4.585786437627e-01 0.000000000000e+00
6.000000000000e-01 4.585786437627e-01 0.000000000000e+00
6.585786437627e-01 4.000000000000e-01 0.000000000000e+00
6.585786437627e-01 3.171572875254e-01 0.000000000000e+00
5.171572875254e-01 4.585786437627e-01 0.000000000000e+00
8.000000000000e-01 4.585786437627e-01 0.000000000000e+00
8.585786437627e-01 4.000000000000e-01 0.000000000000e+00
8.585786437627e-01 3.171572875254e-01 0.000000000000e+00
7.171572875254e-01 4.585786437627e-01 0.000000000000e+00
1.000000000000e+00 4.585786437627e-01 0.000000000000e+00
1.058578643763e+00 4.000000000000e-01 0.000000000000e+00
1.058578643763e+00 3.171572875254e-01 0.000000000000e+00
9.171572875254e-01 4.585786437627e-01 0.000000000000e+00
1.117157287525e+00 4.585786437627e-01 0.000000000000e+00
0.000000000000e+00 6.585786437627e-01 0.000000000000e+00
5.857864376269e-02 6.000000000000e-01 0.000000000000e+00
5.857864376269e-02 5.171572875254e-01 0.000000000000e+00
2.000000000000e-01 6.585786437627e-01 0.000000000000e+00
2.585786437627e-01 6.000000000000e-01 0.000000000000e+00
2.585786437627e-01 5.171572875254e-01 0.000000000000e+00
1.171572875254e-01 6.585786437627e-01 0.000000000000e+00
4.000000000000e-01 6.585786437627e-01 0.000000000000e+00
4.585786437627e-01 6.000000000000e-01 0.000000000000e+00
4.585786437627e-01 5.171572875254e-01 0.000000000000e+00
3.171572875254e-01 6.585786437627e-01 0.000000000000e+00
6.000000000000e-01 6.585786437627e-01 0.000000000000e+00
6.585786437627e-01 6.000000000000e-01 0.000000000000e+00
6.585786437627e-01 5.171572875254e-01 0.000000000000e+00
5.171572875254e-01 6.585786437627e-01 0.000000000000e+00
8.000000000000e-01 6.585786437627e-01 0.000000000000e+00
8.585786437627e-01 6.000000000000e-01 0.000000000000e+00
8.585786437627e-01 5.171572875254e-01 0.000000000000e+00
7.171572875254e-01 6.585786437627e-01 0.000000000000e+00
1.000000000000e+00 6.585786437627e-01 0.000000000000e+00
1.058578643763e+00 6.000000000000e-01 0.000000000000e+00
1.058578643763e+00 5.171572875254e-01 0.000000000000e+00
9.171572875254e-01 6.585786437627e-01 0.000000000000e+00
1.117157287525e+00 6.585786437627e-01 0.000000000000e+00
0.000000000000e+00 8.585786437627e-01 0.000000000000e+00
5.857864376269e-02 8.000000000000e-01 0.000000000000e+00
5.857864376269e-02 7.171572875254e-01 0.000000000000e+00
2.000000000000e-01 8.585786437627e-01 0.000000000000e+00
2.585786437627e-01 8.000000000000e-01 0.000000000000e+00
2.585786437627e-01 7.171572875254e-01 0.000000000000e+00
1.171572875254e-01 8.585786437627e-01 0.000000000000e+00
4.000000000000e-01 8.585786437627e-01 0.000000000000e+00
4.585786437627e-01 8.000000000000e-01 0.000000000000e+00
4.585786437627e-01 7.171572875254e-01 0.000000000000e+00
3.171572875254e-01 8.585786437627e-01 0.000000000000e+00
6.000000000000e-01 8.585786437627e-01 0.000000000000e+00
6.585786437627e-01 8.000000000000e-01 0.000000000000e+00
6.585786437627e-01 7.171572875254e-01 0.000000000000e+00
5.171572875254e-01 8.585786437627e-01 0.000000000000e+00
8.000000000000e-01 8.585786437627e-01 0.000000000000e+00
8.585786437627e-01 8.000000000000e-01 0.000000000000e+00
8.585786437627e-01 7.171572875254e-01 0.000000000000e+00
7.171572875254e-01 8.585786437627e-01 0.000000000000e+00
1.000000000000e+00 8.585786437627e-01 0.000000000000e+00
1.058578643763e+00 8.000000000000e-01 0.000000000000e+00
1.058578643763e+00 7.171572875254e-01 0.000000000000e+00
9.171572875254e-01 8.585786437627e-01 0.000000000000e+00
1.117157287525e+00 8.585786437627e-01 0.000000000000e+00
0.000000000000e+00 1.058578643763e+00 0.000000000000e+00
5.857864376269e-02 1.000000000000e+00 0.000000000000e+00
5.857864376269e-02 9.171572875254e-01 0.000000000000e+00
2.000000000000e-01 1.058578643763e+00 0.000000000000e+00
2.585786437627e-01 1.000000000000e+00 0.000000000000e+00
2.585786437627e-01 9.171572875254e-01 0.000000000000e+00
1.171572875254e-01 1.058578643763e+00 0.000000000000e+00
4.000000000000e-01 1.058578643763e+00 0.000000000000e+00
4.585786437627e-01 1.000000000000e+00 0.000000000000e+00
4.585786437627e-01 9.171572875254e-01 0.000000000000e+00
3.171572875254e-01 1.058578643763e+00 0.000000000000e+00
6.000000000000e-01 1.058578643763e+00 0.000000000000e+00
6.585786437627e-01 1.000000000000e+00 0.000000000000e+00
6.585786437627e-01 9.171572875254e-01 0.000000000000e+00
5.171572875254e-01 1.058578643763e+00 0.000000000000e+00
8.000000000000e-01 1.058578643763e+00 0.000000000000e+00
8.585786437627e-01 1.000000000000e+00 0.000000000000e+00
8.585786437627e-01 9.171572875254e-01 0.000000000000e+00
7.171572875254e-01 1.058578643763e+00 0.000000000000e+00
1.000000000000e+00 1.058578643763e+00 0.000000000000e+00
1.058578643763e+00 1.000000000000e+00 0.000000000000e+00
1.058578643763e+00 9.171572875254e-01 0.000000000000e+00
9.171572875254e-01 1.058578643763e+00 0.000000000000e+00
1.117157287525e+00 1.058578643763e+00 0.000000000000e+00
5.857864376269e-02 1.117157287525e+00 0.000000000000e+00
2.585786437627e-01 1.117157287525e+00 0.000000000000e+00
4.585786437627e-01 1.117157287525e+00 0.000000000000e+00
6.585786437627e-01 1.117157287525e+00 0.000000000000e+00
8.585786437627e-01 1.117157287525e+00 0.000000000000e+00
1.058578643763e+00 1.117157287525e+00 0.000000000000e+00
8 21 22 23 2 4 20 19 24
8 25 26 27 5 7 23 22 28
8 29 30 31 8 10 27 26 32
8 33 34 35 11 13 31 30 36
8 37 38 39 14 16 35 34 40
8 45 46 47 21 24 44 43 48
8 49 50 51 25 28 47 46 52
8 53 54 55 29 32 51 50 56
8 57 58 59 33 36 55 54 60
8 61 62 63 37 40 59 58 64
8 69 70 71 45 48 68 67 72
8 73 74 75 49 52 71 70 76
8 77 78 79 53 56 75 74 80
8 81 82 83 57 60 79 78 84
8 85 86 87 61 64 83 82 88
8 93 94 95 69 72 92 91 96
8 97 98 99 73 76 95 94 100
8 101 102 103 77 80 99 98 104
8 105 106 107 81 84 103 102 108
8 109 110 111 85 88 107 106 112
8 117 118 119 93 96 116 115 120
8 121 122 123 97 100 119 118 124
8 125 126 127 101 104 123 122 128
8 129 130 131 105 108 127 126 132
8 133 134 135 109 112 131 130 136
4 20 4 1 0
4 23 7 3 2
4 27 10 6 5
4 31 13 9 8
4 35 16 12 11
4 39 17 15 14
4 44 24 19 18
4 47 28 22 21
4 51 32 26 25
4 55 36 30 29
4 59 40 34 33
4 63 41 38 37
4 68 48 43 42
4 71 52 46 45
4 75 56 50 49
4 79 60 54 53
4 83 64 58 57
4 87 65 62 61
4 92 72 67 66
4 95 76 70 69
4 99 80 74 73
4 103 84 78 77
4 107 88 82 81
4 111 89 86 85
4 116 96 91 90
4 119 100 94 93
4 123 104 98 97
4 127 108 102 101
4 131 112 106 105
4 135 113 110 109
4 138 120 115 114
4 139 124 118 117
4 140 128 122 121
4 141 132 126 125
4 142 136 130 129
4 143 137 134 133
