ply
format ascii 1.0
element vertex 73
property float x
property float y
property float z
element face 24
property list uchar int vertex_indices
end_header
-9.634330440023e-02 -9.634330440023e-02 0.000000000000e+00
-1.316074012952e-01 -3.526409689502e-02 0.000000000000e+00
3.526409689502e-02 -1.316074012952e-01 0.000000000000e+00
-3.526409689502e-02 -1.316074012952e-01 0.000000000000e+00
3.595581069907e-01 -9.634330440023e-02 0.000000000000e+00
3.242940100957e-01 -3.526409689502e-02 0.000000000000e+00
2.632148025905e-01 7.437084071669e-18 0.000000000000e+00
1.926866088005e-01 2.031849154396e-17 0.000000000000e+00
1.316074012952e-01 -3.526409689502e-02 0.000000000000e+00
9.634330440023e-02 -9.634330440023e-02 0.000000000000e+00
4.911655082860e-01 -1.316074012952e-01 0.000000000000e+00
4.206373144959e-01 -1.316074012952e-01 0.000000000000e+00
7.801954214867e-01 -3.526409689502e-02 0.000000000000e+00
7.191162139815e-01 7.437084071669e-18 0.000000000000e+00
6.485880201914e-01 2.031849154396e-17 0.000000000000e+00
5.875088126862e-01 -3.526409689502e-02 0.000000000000e+00
5.522447157912e-01 -9.634330440023e-02 0.000000000000e+00
-9.634330440023e-02 1.668714981903e-01 0.000000000000e+00
-1.316074012952e-01 2.279507056955e-01 0.000000000000e+00
-1.316074012952e-01 3.526409689502e-02 0.000000000000e+00
-9.634330440023e-02 9.634330440023e-02 0.000000000000e+00
1.316074012952e-01 3.526409689502e-02 0.000000000000e+00
9.634330440023e-02 9.634330440023e-02 0.000000000000e+00
3.526409689502e-02 1.316074012952e-01 0.000000000000e+00
-3.526409689502e-02 1.316074012952e-01 0.000000000000e+00
3.595581069907e-01 1.668714981903e-01 0.000000000000e+00
3.242940100957e-01 2.279507056955e-01 0.000000000000e+00
2.632148025905e-01 2.632148025905e-01 0.000000000000e+00
1.926866088005e-01 2.632148025905e-01 0.000000000000e+00
1.316074012952e-01 2.279507056955e-01 0.000000000000e+00
9.634330440023e-02 1.668714981903e-01 0.000000000000e+00
3.242940100957e-01 3.526409689502e-02 0.000000000000e+00
3.595581069907e-01 9.634330440023e-02 0.000000000000e+00
5.875088126862e-01 3.526409689502e-02 0.000000000000e+00
5.522447157912e-01 9.634330440023e-02 0.000000000000e+00
4.911655082860e-01 1.316074012952e-01 0.000000000000e+00
4.206373144959e-01 1.316074012952e-01 0.000000000000e+00
8.154595183817e-01 1.668714981903e-01 0.000000000000e+00
7.801954214867e-01 2.279507056955e-01 0.000000000000e+00
7.191162139815e-01 2.632148025905e-01 0.000000000000e+00
6.485880201914e-01 2.632148025905e-01 0.000000000000e+00
5.875088126862e-01 2.279507056955e-01 0.000000000000e+00
5.522447157912e-01 1.668714981903e-01 0.000000000000e+00
7.801954214867e-01 3.526409689502e-02 0.000000000000e+00
8.154595183817e-01 9.634330440023e-02 0.000000000000e+00
8.765387258869e-01 1.316074012952e-01 0.000000000000e+00
-1.316074012952e-01 2.984788994855e-01 0.000000000000e+00
-9.634330440023e-02 3.595581069907e-01 0.000000000000e+00
1.316074012952e-01 2.984788994855e-01 0.000000000000e+00
9.634330440023e-02 3.595581069907e-01 0.000000000000e+00
3.526409689502e-02 3.948222038857e-01 0.000000000000e+00
-3.526409689502e-02 3.948222038857e-01 0.000000000000e+00
3.595581069907e-01 4.300863007808e-01 0.000000000000e+00
3.242940100957e-01 4.911655082860e-01 0.000000000000e+00
2.632148025905e-01 5.264296051810e-01 0.000000000000e+00
1.926866088005e-01 5.264296051810e-01 0.000000000000e+00
1.316074012952e-01 4.911655082860e-01 0.000000000000e+00
9.634330440023e-02 4.300863007808e-01 0.000000000000e+00
3.242940100957e-01 2.984788994855e-01 0.000000000000e+00
3.595581069907e-01 3.595581069907e-01 0.000000000000e+00
5.875088126862e-01 2.984788994855e-01 0.000000000000e+00
5.522447157912e-01 3.595581069907e-01 0.000000000000e+00
4.911655082860e-01 3.948222038857e-01 0.000000000000e+00
4.206373144959e-01 3.948222038857e-01 0.000000000000e+00
8.154595183817e-01 4.300863007808e-01 0.000000000000e+00
7.801954214867e-01 4.911655082860e-01 0.000000000000e+00
7.191162139815e-01 5.264296051810e-01 0.000000000000e+00
6.485880201914e-01 5.264296051810e-01 0.000000000000e+00
5.875088126862e-01 4.911655082860e-01 0.000000000000e+00
5.522447157912e-01 4.300863007808e-01 0.000000000000e+00
7.801954214867e-01 2.984788994855e-01 0.000000000000e+00
8.154595183817e-01 3.595581069907e-01 0.000000000000e+00
8.765387258869e-01 3.948222038857e-01 0.000000000000e+00
12 21 22 23 24 20 19 1 0 3 2 9 8
12 25 26 27 28 29 30 22 21 7 6 31 32
12 33 34 35 36 32 31 5 4 11 10 16 15
12 37 38 39 40 41 42 34 33 14 13 43 44
12 48 49 50 51 47 46 18 17 24 23 30 29
12 52 53 54 55 56 57 49 48 28 27 58 59
12 60 61 62 63 59 58 26 25 36 35 42 41
12 64 65 66 67 68 69 61 60 40 39 70 71
3 31 6 5
3 21 8 7
3 43 13 12
3 33 15 14
3 30 23 22
3 36 25 32
3 58 27 26
3 48 29 28
3 42 35 34
3 45 37 44
3 70 39 38
3 60 41 40
3 57 50 49
3 63 52 59
3 69 62 61
3 72 64 71
